<?xml version="1.0" encoding="UTF-8"?>
<svg width="264px" height="60px" viewBox="0 0 264 60" version="1.1" xmlns="http://www.w3.org/2000/svg" xmlns:xlink="http://www.w3.org/1999/xlink">
    <!-- Generator: Sketch 43.2 (39069) - http://www.bohemiancoding.com/sketch -->
    <title>Artboard Copy</title>
    <desc>Created with Sketch.</desc>
    <defs></defs>
    <g id="Page-1" stroke="none" stroke-width="1" fill="none" fill-rule="evenodd">
        <g id="Artboard-Copy" fill-rule="nonzero">
            <g id="tabung-haji-new-logo-01-(1)">
                <path d="M31.8502618,0.251308901 L86.9528796,0.251308901 C86.9528796,0.251308901 92.1078534,1.86282723 90.1759162,6.53403141 L69.0691099,52.1465969 C69.0691099,52.1465969 66.4900524,56.3340314 60.3675393,57.8010471 L4.2973822,57.8010471 C4.2973822,57.8010471 -1.67120419,56.9968586 0.914136126,50.3905759 L20.2492147,8.66073298 C20.2492147,8.66073298 23.6324607,1.57068063 31.8502618,0.282722513" id="Shape" fill="#000000"></path>
                <path d="M60.3675393,57.9267016 L4.2973822,57.9267016 C4.17801047,57.9267016 1.82827225,57.5748691 0.694240838,55.6492147 C-0.109947644,54.2858639 -0.0848167539,52.4858639 0.766492147,50.3089005 L20.104712,8.56335079 C20.139267,8.49109948 23.6198953,1.38219895 31.8251309,0.0816753927 L86.9528796,0.0816753927 L87,0.0816753927 C87.1005236,0.113089005 89.4691099,0.873298429 90.4020942,2.86492147 C90.9141361,3.95811518 90.8858639,5.2052356 90.3204188,6.57486911 L69.2104712,52.1780105 C69.1759162,52.2376963 66.5183246,56.4565445 60.4146597,57.904712 L60.3675393,57.9267016 Z M31.8628272,0.408376963 C23.8303665,1.66492147 20.4251309,8.62617801 20.3905759,8.69842932 L1.05863874,50.4251309 C0.248167539,52.504712 0.213612565,54.2104712 0.964397906,55.4890052 C2.01989529,57.2827225 4.2973822,57.6125654 4.31937173,57.6157068 L60.3518325,57.6157068 C66.3204188,56.1958115 68.9120419,52.0931937 68.9371728,52.052356 L90.034555,6.47120419 C90.5623037,5.19581152 90.5905759,4.03036649 90.1193717,3.01570681 C89.2900524,1.24397906 87.1696335,0.486910995 86.9308901,0.405235602 L31.8628272,0.408376963 Z" id="Shape" fill="#000000"></path>
                <g id="Group" transform="translate(20.732984, 5.968586)">
                    <g transform="translate(16.649215, 4.083770)" id="Shape">
                        <path d="M2.07643979,0.251308901 L3.60628272,1.6460733 C2.73926702,1.66492147 2.27120419,1.8973822 2.03560209,2.18638743 L0.505759162,0.791623037 C0.75078534,0.502617801 1.21884817,0.270157068 2.07643979,0.251308901" fill="#486720"></path>
                        <path d="M0.49947644,0.791623037 L2.02931937,2.18638743 C1.99193281,2.23062582 1.95830798,2.27791073 1.92879581,2.32774869 L0.395811518,0.942408377 C0.42513039,0.892445042 0.458766625,0.845144086 0.496335079,0.80104712" fill="#4B6B21"></path>
                        <path d="M0.395811518,0.942408377 L1.92565445,2.33717277 C1.90054103,2.37951929 1.87849502,2.42361131 1.85968586,2.46910995 L0.329842932,1.07434555 C0.348792694,1.02891116 0.370833861,0.984828823 0.395811518,0.942408377" fill="#4E6F23"></path>
                        <path d="M0.332984293,1.06806283 L1.86282723,2.46282723 C1.84516675,2.50789135 1.83047564,2.5540634 1.81884817,2.60104712 L0.289005236,1.20628272 C0.300439404,1.15924461 0.31513462,1.11305964 0.332984293,1.06806283" fill="#517324"></path>
                        <path d="M0.285863874,1.20628272 L1.81570681,2.60104712 C1.80253209,2.65372006 1.79308461,2.70725573 1.78743455,2.76125654 L0.257591623,1.36649215 C0.263251967,1.31249277 0.272699312,1.25895782 0.285863874,1.20628272" fill="#537725"></path>
                        <path d="M0.257591623,1.36649215 L1.78743455,2.76125654 C1.78165526,2.83339228 1.78165526,2.90587473 1.78743455,2.97801047 L0.254450262,1.57068063 C0.24865751,1.49854543 0.24865751,1.4260619 0.254450262,1.3539267" fill="#567B26"></path>
                        <path d="M0.254450262,1.57068063 L1.78429319,2.96544503 C1.79094537,3.08458814 1.8109663,3.20260626 1.84397906,3.31727749 L0.314136126,1.93507853 C0.281404729,1.82141361 0.261386957,1.70446767 0.254450262,1.58638743" fill="#597F28"></path>
                        <path d="M0.314136126,1.93507853 L1.84397906,3.32984293 C1.84397906,3.37068063 1.86596859,3.39895288 1.86910995,3.40837696 L0.339267016,2.01361257 C0.339267016,2.01361257 0.339267016,1.97591623 0.314136126,1.93507853" fill="#5C8329"></path>
                    </g>
                    <g transform="translate(3.769634, 11.937173)" id="Shape">
                        <path d="M1.8565445,0 L3.38638743,1.3947644 C3.34240838,1.45759162 3.16963351,1.70890052 2.95287958,2.07329843 L1.42303665,0.678534031 C1.64293194,0.304712042 1.81256545,0.0502617801 1.8565445,0" fill="#4B6B21"></path>
                        <path d="M1.42303665,0.672251309 L2.95287958,2.06701571 C2.68712179,2.52213483 2.454073,2.9955808 2.25549738,3.48376963 L0.72565445,2.08900524 C0.924132938,1.60077281 1.15718508,1.12732004 1.42303665,0.672251309" fill="#4E6F23"></path>
                        <path d="M0.72565445,2.08900524 L2.25549738,3.48376963 C2.0927348,3.88353532 1.95734398,4.29390595 1.85026178,4.71204188 L0.314136126,3.31727749 C0.421274071,2.89915786 0.556663657,2.48879098 0.719371728,2.08900524" fill="#517324"></path>
                        <path d="M0.314136126,3.31727749 L1.84397906,4.71204188 C1.75270404,5.06715434 1.6865716,5.42825848 1.6460733,5.79267016 L0.122513089,4.39790576 C0.163175322,4.03351819 0.22930567,3.67242549 0.320418848,3.31727749" fill="#537725"></path>
                        <path d="M0.122513089,4.39790576 L1.65235602,5.79267016 C1.61346668,6.14308179 1.60296128,6.49606333 1.62094241,6.84816754 L0.0910994764,5.45340314 C0.073268386,5.10129735 0.0837734293,4.7483279 0.122513089,4.39790576" fill="#567B26"></path>
                        <path d="M0.0910994764,5.45340314 L1.62094241,6.84816754 C1.64318571,7.28545027 1.71592009,7.7186942 1.83769634,8.13926702 L0.314136126,6.74450262 C0.192414702,6.3239173 0.119681395,5.89067978 0.097382199,5.45340314" fill="#597F28"></path>
                        <path d="M0.314136126,6.74450262 L1.84397906,8.13926702 C2.06395209,8.89011438 2.43845358,9.58668716 2.9434555,10.1842932 L1.40732984,8.79581152 C0.902633616,8.19918205 0.528142468,7.50369849 0.307853403,6.7539267" fill="#5C8329"></path>
                        <path d="M1.40732984,8.79581152 L2.93717277,10.1905759 C3.13809581,10.4314109 3.35536359,10.6581251 3.58743455,10.8691099 L2.05759162,9.47434555 C1.82579932,9.26419361 1.60854561,9.03854362 1.40732984,8.79895288" fill="#597F28"></path>
                    </g>
                    <polygon id="Shape" fill="#597F28" points="16.9853403 6.0973822 18.5151832 7.4921466 23.2774869 12.6659686 21.747644 11.2680628"></polygon>
                    <path d="M7.15602094,29.1172775 L8.68586387,30.5120419 C8.37172775,30.486911 5.30575916,30.2544503 3.34554974,28.4575916 L1.81570681,27.0628272 C3.78534031,28.8596859 6.84188482,29.0921466 7.15602094,29.1172775" id="Shape" fill="#486720"></path>
                    <g transform="translate(12.565445, 15.392670)" id="Shape">
                        <path d="M7.18743455,0.179057592 L8.71727749,1.57382199 C7.21419127,2.83134267 5.82069535,4.21432957 4.55183246,5.7078534 L3.02198953,4.31308901 C4.29050634,2.81924493 5.68403072,1.43622979 7.18743455,0.179057592" fill="#486720"></path>
                        <path d="M3.02198953,4.31308901 L4.55183246,5.7078534 C3.80585085,6.58212219 3.13439461,7.51732729 2.54450262,8.50366492 L1.01465969,7.10890052 C1.60352469,6.12266258 2.27392908,5.18745897 3.01884817,4.31308901" fill="#4B6B21"></path>
                        <path d="M1.01780105,7.10890052 L2.54764398,8.50366492 C2.25432997,9.00079119 1.99712293,9.51835475 1.77801047,10.052356 L0.248167539,8.65759162 C0.467476412,8.12367933 0.724676579,7.60612961 1.01780105,7.10890052" fill="#4E6F23"></path>
                        <polyline fill="#517324" points="0.248167539 8.65445026 1.77801047 10.0492147 1.71204188 10.2188482 0.182198953 8.82408377 0.248167539 8.65445026"></polyline>
                    </g>
                    <polygon id="Shape" fill="#46641F" points="32.3780105 4.57382199 33.9078534 5.96858639 20.2554974 5.72984293 18.7256545 4.33507853"></polygon>
                    <polygon id="Shape" fill="#46641F" points="21.6031414 16.8282723 23.1329843 18.226178 21.2827225 16.9664921 19.7528796 15.5717277"></polygon>
                    <polygon id="Shape" fill="#577C27" points="21.7633508 14.1926702 23.2963351 15.5905759 23.1329843 18.226178 21.6031414 16.8282723"></polygon>
                    <g transform="translate(10.680628, 29.214660)" id="Shape">
                        <path d="M0.235602094,0.248167539 L1.76544503,1.64293194 C1.74659686,1.72460733 1.67748691,2.06073298 1.62408377,2.56335079 L0.0942408377,1.16858639 C0.147643979,0.665968586 0.219895288,0.329842932 0.235602094,0.248167539" fill="#537725"></path>
                        <path d="M0.0910994764,1.16858639 L1.62094241,2.56335079 C1.55616302,3.1547283 1.53830618,3.75030639 1.56753927,4.34450262 L0.0376963351,2.94973822 C0.00854206445,2.35554123 0.0263987162,1.75996938 0.0910994764,1.16858639" fill="#567B26"></path>
                        <path d="M0.0408376963,2.94973822 L1.57068063,4.34450262 C1.59752539,5.03175391 1.70292298,5.71367636 1.88481675,6.37696335 L0.354973822,4.98219895 C0.173053092,4.31891772 0.0676550136,3.63699215 0.0408376963,2.94973822" fill="#597F28"></path>
                        <path d="M0.367539267,4.98219895 L1.8973822,6.37696335 C2.13686376,7.2420454 2.55412327,8.04767722 3.12251309,8.74240838 L1.59267016,7.34764398 C1.02435767,6.65286196 0.607106985,5.84724718 0.367539267,4.98219895" fill="#5C8329"></path>
                        <path d="M1.59267016,7.34764398 L3.12251309,8.74240838 C3.29153094,8.94516363 3.47415185,9.1361809 3.66910995,9.31413613 L2.13926702,7.91937173 C1.94423377,7.74149342 1.76160779,7.55047084 1.59267016,7.34764398" fill="#597F28"></path>
                    </g>
                    <path d="M42.113089,6.81361257 L43.6429319,8.20837696 C43.2,8.24293194 34.7748691,8.9026178 23.2963351,15.5874346 L21.7664921,14.1926702 C33.2450262,7.5078534 41.6701571,6.84816754 42.113089,6.81361257" id="Shape" fill="#486720"></path>
                    <polygon id="Shape" fill="#486720" points="48.5874346 0.518324607 50.1172775 1.91623037 43.6429319 8.21151832 42.113089 6.81361257"></polygon>
                    <path d="M40.5235602,24.9801047 L42.0534031,26.3748691 C41.6167539,26.5382199 33.304712,29.6167539 12.4586387,30.8575916 L10.9287958,29.4628272 C31.7591623,28.2219895 40.0712042,25.1308901 40.5235602,24.9801047" id="Shape" fill="#486720"></path>
                    <g transform="translate(46.492147, 21.361257)" id="Shape">
                        <path d="M0.119371728,0.0753926702 L1.64921466,1.47015707 C1.71833996,1.53296848 1.78339319,1.6001202 1.84397906,1.67120419 L0.314136126,0.279581152 C0.253550262,0.208497163 0.18849703,0.141345439 0.119371728,0.0785340314" fill="#597F28"></path>
                        <path d="M0.314136126,0.279581152 L1.84397906,1.67434555 C1.9135586,1.75727932 1.97657621,1.84550397 2.03246073,1.9382199 L0.502617801,0.543455497 C0.446733275,0.450739575 0.383715665,0.362514922 0.314136126,0.279581152" fill="#5C8329"></path>
                    </g>
                    <path d="M44.0167539,25.4230366 L45.5465969,26.817801 C45.0223159,26.3710038 44.3502564,26.135783 43.6617801,26.1581152 C43.1162825,26.1577389 42.5732063,26.2306421 42.0471204,26.3748691 L40.5235602,24.9801047 C41.0496537,24.835915 41.5927248,24.7630124 42.1382199,24.7633508 C42.8266962,24.7410186 43.4987557,24.9762394 44.0230366,25.4230366" id="Shape" fill="#486720"></path>
                    <g transform="translate(44.607330, 21.675393)" id="Shape">
                        <path d="M2.38743455,0.22617801 L3.91727749,1.62094241 C4.15117091,1.92569731 4.32494169,2.27217279 4.42931937,2.64188482 L2.89947644,1.2565445 C2.79488445,0.886915634 2.62113317,0.540479022 2.38743455,0.235602094" fill="#5C8329"></path>
                        <path d="M2.89947644,1.2565445 L4.42931937,2.6513089 C4.49238727,2.86930803 4.53032988,3.09380179 4.54240838,3.32041885 L3.01256545,1.92565445 C3.00024331,1.69906445 2.96230534,1.47459814 2.89947644,1.2565445" fill="#597F28"></path>
                        <path d="M3.01570681,1.91623037 L4.54554974,3.31099476 C4.55845305,3.46989555 4.55845305,3.62958089 4.54554974,3.78848168 L3.01570681,2.39371728 C3.02876358,2.23482275 3.02876358,2.07512489 3.01570681,1.91623037" fill="#567B26"></path>
                        <path d="M3,2.39371728 L4.52984293,3.78848168 C4.51452998,3.9303781 4.48933795,4.07103358 4.45445026,4.20942408 L2.92460733,2.82722513 C2.95957552,2.68885198 2.98476856,2.54819082 3,2.40628272" fill="#537725"></path>
                        <path d="M2.92460733,2.82722513 L4.45445026,4.22198953 C4.4171349,4.3684821 4.36990564,4.51226897 4.31308901,4.65235602 L2.78324607,3.25759162 C2.84018247,3.1175485 2.88741445,2.97375335 2.92460733,2.82722513" fill="#517324"></path>
                        <path d="M2.78324607,3.24502618 L4.31308901,4.63979058 C4.24427393,4.80871126 4.1634385,4.97248174 4.07120419,5.12984293 L2.54136126,3.73507853 C2.63373971,3.57779507 2.71458037,3.41401401 2.78324607,3.24502618" fill="#4E6F23"></path>
                        <path d="M2.54136126,3.73507853 L4.07120419,5.12984293 C3.93321058,5.36275677 3.77556922,5.58345467 3.6,5.7895288 L2.07015707,4.39790576 C2.24588471,4.19195538 2.40353608,3.97124346 2.54136126,3.7382199" fill="#4B6B21"></path>
                        <path d="M2.07015707,4.39790576 L3.6,5.79267016 C3.07551122,6.38896537 2.46578395,6.90448131 1.79057592,7.32251309 L0.260732984,5.92774869 C0.935995254,5.50979159 1.54573291,4.99426687 2.07015707,4.39790576" fill="#486720"></path>
                    </g>
                    <path d="M43.5801047,20.5445026 C44.8837696,20.5664921 46.3539267,20.8586387 46.9947644,21.904712 C47.1078534,22.0460733 49.2722513,24.7602094 44.8680628,27.6062827 C44.8680628,27.4680628 44.9403141,24.8167539 42.1256545,24.7790576 C41.5801619,24.7787571 41.0370958,24.851659 40.5109948,24.9958115 C40.0743455,25.1591623 31.7623037,28.2376963 10.9162304,29.478534 C10.8188482,29.9465969 8.94973822,38.8712042 18.5623037,39.0376963 C22.8157068,39.113089 29.3308901,37.3790576 39.295288,32.2335079 C38.9183246,32.8617801 31.7748691,44.5445026 18.8764398,44.321466 C16.357809,44.2607937 13.8678473,43.7721493 11.513089,42.8764398 C11.173822,42.7539267 4.7026178,40.4010471 7.16230366,29.1298429 C6.44293194,29.0732984 -7.21884817,28.0303665 5.63246073,11.9465969 C5.34973822,12.3455497 -0.0376963351,19.9539267 9.47748691,23.5162304 C9.55287958,23.3246073 10.991623,19.6774869 18.2041885,13.8628272 L14.6293194,10.0303665 C14.6136126,9.57801047 14.3151832,0.97382199 20.1675393,0.0376963351 L48.5968586,0.530890052 L42.1193717,6.81361257 C41.6764398,6.84816754 33.2513089,7.5078534 21.7727749,14.1926702 L21.6125654,16.8282723 L19.7623037,15.5717277 C19.4921466,15.791623 14.3717277,20.0010471 12.7539267,24.2167539 C12.8041885,24.2167539 13.7403141,24.4680628 16.0837696,24.5089005 C20.0230366,24.5780105 27.8010471,24.0534031 41.1926702,20.739267 C41.9825761,20.589426 42.7856257,20.5199617 43.5895288,20.5319372 M16.9947644,6.08167539 L21.7570681,11.2554974 C22.9068063,10.5204188 31.913089,4.8565445 32.3874346,4.55811518 L18.7350785,4.32251309 C16.3790576,4.37591623 16.9633508,5.99685864 16.9947644,6.08481675" id="Shape" fill="#8CC63F"></path>
                    <g transform="translate(9.424084, 32.041885)" id="Shape">
                        <path d="M29.8617801,0.17591623 L31.391623,1.57068063 C30.7441961,2.60637411 30.0218484,3.59330268 29.2303665,4.52356021 L27.7005236,3.14136126 C28.4920672,2.21115251 29.2144183,1.2242193 29.8617801,0.188481675" fill="#4B6B21"></path>
                        <path d="M27.7005236,3.14136126 L29.2146597,4.52356021 C26.1801047,8.16753927 19.9790576,13.8219895 10.9759162,13.6617801 C8.45727875,13.6011687 5.96730692,13.1125224 3.61256545,12.2167539 C2.86860973,11.9242359 2.18731325,11.4924283 1.6052356,10.9445026 L0.0753926702,9.54973822 C0.65747032,10.0976639 1.3387668,10.5294715 2.08272251,10.8219895 C4.43748084,11.7176991 6.92744248,12.2063434 9.4460733,12.2670157 C18.4492147,12.4240838 24.6502618,6.76963351 27.7005236,3.13193717" fill="#486720"></path>
                    </g>
                </g>
                <g id="Group" transform="translate(46.178010, 18.848168)">
                    <polygon id="Shape" fill="#587E27" points="3.77905759 0.00314136126 5.18324607 1.33193717 8.93403141 5.11727749 7.52984293 3.78848168"></polygon>
                    <polygon id="Shape" fill="#486720" points="7.52984293 3.78848168 8.93403141 5.11727749 5.32146597 8.70471204 3.91727749 7.37591623"></polygon>
                    <rect id="Rectangle-path" fill="#78AB35" transform="translate(3.844089, 3.700289) rotate(-44.750000) translate(-3.844089, -3.700289) " x="1.29801618" y="1.03641458" width="5.0921466" height="5.32774869"></rect>
                </g>
                <g id="Group" transform="translate(54.031414, 18.848168)">
                    <polygon id="Shape" fill="#587E27" points="3.77905759 0.00314136126 5.18324607 1.33193717 8.93403141 5.11727749 7.52984293 3.78848168"></polygon>
                    <polygon id="Shape" fill="#486720" points="7.52984293 3.78848168 8.93403141 5.11727749 5.32146597 8.70471204 3.91727749 7.37591623"></polygon>
                    <rect id="Rectangle-path" fill="#78AB35" transform="translate(3.845545, 3.703315) rotate(-44.750000) translate(-3.845545, -3.703315) " x="1.29947201" y="1.0394403" width="5.0921466" height="5.32774869"></rect>
                </g>
                <path d="M204.838743,49.5486911 C204.838743,49.5486911 206.12356,47.1926702 207.537173,47.2209424 C208.950785,47.2492147 207.537173,47.2774869 207.537173,47.2774869 C207.537173,47.2774869 207.976963,46.6931937 210.458639,49.0052356 C210.458639,49.0052356 211.055497,49.7591623 214.605236,50.2303665 L213.788482,51.7068063 C213.788482,51.7068063 208.919372,50.5633508 206.72356,51.5685864 C206.72356,51.5685864 206.503665,51.7350785 206.72356,51.8198953 C206.72356,51.8198953 209.896335,52.7120419 207.980105,54.6062827 C207.980105,54.6062827 205.498429,57.3361257 202.514136,57.1979058 C202.514136,57.1979058 199.24712,56.9465969 199.278534,53.9371728 C199.278534,53.9371728 199.467016,51.8732984 200.566492,50.8146597 C200.566492,50.8146597 201.100524,50.7581152 200.943455,51.0376963 C200.943455,51.0376963 198.241885,54.4649215 202.639791,55.4136126 C202.639791,55.4136126 204.241885,55.7748691 207.131937,53.8240838 C207.131937,53.8240838 207.508901,53.5445026 207.100524,53.321466 C206.350597,53.1119912 205.582947,52.9721318 204.80733,52.9036649 C204.80733,52.9036649 203.959162,50.8146597 209.079581,50.1706806 C209.079581,50.1706806 207.508901,47.4942408 205.529843,49.7811518 C205.52356,49.7874346 205.218848,49.947644 204.838743,49.5486911 Z" id="Shape" fill="#000000"></path>
                <polygon id="Shape" fill="#000000" points="201.936126 59.0356021 203.252356 59.8837696 204.20733 58.7151832 202.894241 57.8670157"></polygon>
                <polygon id="Shape" fill="#000000" points="204.292147 58.6994764 205.608377 59.547644 206.563351 58.382199 205.250262 57.5308901"></polygon>
                <path d="M189.163351,41.8429319 C189.163351,41.8429319 189.446073,41.2146597 189.540314,41.8146597 C189.540314,41.8146597 190.137173,44.7424084 189.980105,45.8984293 C189.980105,45.8984293 189.917277,49.2691099 191.110995,50.1612565 C191.110995,50.1612565 190.294241,47.3183246 194.032461,46.0774869 C195.154104,46.0030658 196.226688,46.547794 196.828272,47.4973822 C196.828272,47.4973822 196.702618,47.8335079 196.294241,47.582199 C196.294241,47.582199 194.692147,45.9109948 192.084817,48.5026178 C192.084817,48.5026178 191.67644,50.0921466 194.660733,50.7612565 C195.772837,50.6379771 196.812008,50.1471347 197.613613,49.3664921 C197.613613,49.3664921 198.084817,49.0052356 198.02199,49.8125654 C198.02199,49.8125654 197.048168,52.573822 192.367539,52.6397906 C192.367539,52.6397906 190.671204,52.7246073 189.917277,50.7172775 C189.917277,50.7172775 189.665969,50.1863874 189.383246,50.7172775 L188.817801,51.747644 C188.817801,51.747644 190.953927,52.4732984 190.98534,53.5884817 C190.98534,53.5884817 191.362304,58.5769634 177.606283,59.4125654 C177.606283,59.4125654 169.250262,59.9685864 164.227225,54.1162304 C164.227225,54.1162304 170.258639,57.713089 177.574869,57.6848168 C177.574869,57.6848168 183.292147,57.9989529 188.189529,55.3445026 C188.189529,55.3445026 192.241885,53.773822 186.46178,53.1989529 C186.46178,53.1989529 186.147644,52.4450262 187.341361,51.5811518 C187.341361,51.5811518 190.325654,50.1612565 189.163351,46.008377 C189.163351,45.9958115 188.406283,42.678534 189.163351,41.8429319 Z" id="Shape" fill="#000000"></path>
                <path d="M180.628272,43.5424084 C180.628272,43.5424084 181.225131,42.0376963 181.570681,43.2910995 C181.562725,44.9399471 181.731223,46.5849128 182.073298,48.1979058 C182.347435,49.6458762 182.326065,51.1343186 182.010471,52.573822 C182.010471,52.573822 181.382199,53.2994764 181.350785,52.4890052 C181.544063,50.3778023 181.352475,48.2490485 180.78534,46.2062827 C180.517773,45.3441936 180.463868,44.4299675 180.628272,43.5424084 L180.628272,43.5424084 Z" id="Shape" fill="#000000"></path>
                <path d="M178.294241,44.5193717 C178.441017,44.1294268 178.608802,43.7477162 178.796859,43.3759162 L177.85445,42.6219895 C177.603141,41.0890052 176.943455,42.7350785 176.943455,42.7350785 C176.629319,43.991623 176.849215,43.8314136 176.849215,43.8314136 L177.037696,43.8314136 L177.163351,45.3361257 C178.702618,51.6188482 177.351832,51.7193717 177.351832,51.7193717 C174.179058,51.9989529 174.524607,51.1884817 174.524607,51.1884817 C175.718325,47.5947644 173.475393,47.5570681 173.475393,47.5570681 C170.990576,48.8356021 171.66911,51.5528796 171.66911,51.5528796 C163.532984,54.3801047 162.216754,50.2963351 162.216754,50.2963351 C161.808377,45.5308901 161.660733,43.6994764 161.660733,43.6994764 C161.195812,42.2544503 160.718325,43.8910995 160.718325,43.8910995 C160.184293,48.6282723 159.493194,49.5204188 159.493194,49.5204188 C159.147644,50.104712 159.053403,49.5204188 159.053403,49.5204188 C158.645026,44.1801047 154.372775,44.6136126 154.372775,44.6136126 C153.336126,47.4565445 156.571728,46.9539267 156.571728,46.9539267 C162.003141,51.6659686 153.241885,54.034555 153.241885,54.034555 C160.526702,54.4240838 160.809424,47.7078534 160.809424,47.7078534 C160.966492,47.2052356 161.154974,47.6513089 161.154974,47.6513089 C161.46911,48.3486911 161.46911,51.4429319 161.46911,51.4429319 C163.322513,56.0136126 172.366492,52.9193717 172.366492,52.9193717 C173.277487,52.3602094 173.748691,52.5298429 173.748691,52.5298429 C177.958115,54.5371728 178.303665,52.0837696 178.303665,52.0837696 C179.371728,50.1329843 178.303665,44.6418848 178.303665,44.6418848 L178.294241,44.5193717 Z M174.053403,50.2617801 L173.802094,50.704712 C173.575921,51.0190433 173.153793,51.1205677 172.809424,50.9434555 C172.641624,50.8870933 172.505386,50.7625603 172.434216,50.600485 C172.363046,50.4384096 172.36355,50.2538314 172.435602,50.0921466 L172.686911,49.6492147 C172.913085,49.3348834 173.335212,49.233359 173.679581,49.4104712 C173.847381,49.4668334 173.98362,49.5913664 174.054789,49.7534417 C174.125959,49.9155171 174.125456,50.1000953 174.053403,50.2617801 L174.053403,50.2617801 Z" id="Shape" fill="#000000"></path>
                <path d="M148.206283,47.3057592 C149.96436,47.6498024 151.762205,47.7439249 153.546597,47.5853403 C153.546597,47.5853403 153.892147,48.339267 152.79267,49.2848168 C152.79267,49.2848168 147.326702,50.3151832 146.984293,53.9968586 C146.984293,53.9968586 146.010471,59.0984293 159.012565,56.8963351 L159.075393,57.1759162 C159.075393,57.1759162 155.431414,59.4879581 151.602094,59.2115183 C151.602094,59.2115183 145.353927,59.1832461 146.198953,54 C146.198953,54 146.136126,51.9643979 148.900524,49.3727749 C148.900524,49.3727749 149.434555,48.9267016 147.895288,49.0397906 C147.895288,49.0397906 147.643979,49.0963351 146.984293,49.6680628 C146.984293,49.6680628 146.60733,49.8628272 146.60733,49.4167539 C146.604188,49.4230366 147.078534,47.4188482 148.206283,47.3057592 Z" id="Shape" fill="#000000"></path>
                <polygon id="Shape" fill="#000000" points="171.819895 45.6534031 173.136126 46.504712 174.091099 45.3361257 172.774869 44.4879581"></polygon>
                <polygon id="Shape" fill="#8CC63F" points="96.782199 19.5298429 107.252356 19.5298429 107.252356 23.2806283 103.796859 23.2806283 103.796859 39.5246073 100.143455 39.5246073 100.143455 23.2806283 96.782199 23.2806283"></polygon>
                <path d="M115.504712,19.5298429 L119.161257,19.5298429 L126.449215,39.5277487 L122.701571,39.5277487 L121.218848,35.4094241 L113.487958,35.4094241 L111.94555,39.5277487 L108.197906,39.5277487 L115.504712,19.5298429 Z M117.358115,24.8167539 L114.816754,31.6806283 L119.886911,31.6806283 L117.358115,24.8167539 Z" id="Shape" fill="#8CC63F"></path>
                <path d="M129.238743,39.5246073 L129.238743,19.5298429 L132.216754,19.5298429 C133.944503,19.5298429 135.208377,19.6481675 136.008377,19.8848168 C137.080528,20.1614237 138.031998,20.7828596 138.71623,21.6534031 C139.389327,22.5233697 139.744098,23.59766 139.721466,24.6973822 C139.730796,25.4146316 139.573811,26.1242887 139.262827,26.7706806 C138.902893,27.4565948 138.394147,28.0533514 137.773822,28.5172775 C138.795242,28.9825725 139.665848,29.7247645 140.286911,30.6596859 C140.834398,31.5765875 141.111039,32.6297853 141.084817,33.6973822 C141.096281,34.7778408 140.810473,35.840655 140.258639,36.7696335 C139.758141,37.6464538 139.0212,38.3648898 138.131937,38.8429319 C137.262827,39.3015707 136.063874,39.5308901 134.535079,39.5308901 L129.238743,39.5246073 Z M132.845026,23.1581152 L132.845026,27.3706806 L133.633508,27.3706806 C134.513089,27.3706806 135.166492,27.1759162 135.593717,26.7863874 C136.024774,26.3734191 136.254212,25.7929414 136.22199,25.1968586 C136.248808,24.6354972 136.027028,24.0908163 135.615707,23.7078534 C135.211518,23.3413613 134.595812,23.1581152 133.768586,23.1581152 L132.845026,23.1581152 Z M132.845026,30.7696335 L132.845026,35.8931937 L133.749738,35.8931937 C135.24712,35.8931937 136.256545,35.6942408 136.77801,35.2963351 C137.308208,34.8794852 137.600457,34.2292622 137.560209,33.5560209 C137.593679,32.7696943 137.253584,32.0137992 136.642932,31.5172775 C136.031414,31.0188482 135.015707,30.7696335 133.595812,30.7696335 L132.845026,30.7696335 Z" id="Shape" fill="#8CC63F"></path>
                <path d="M144.411518,19.5298429 L148.030366,19.5298429 L148.030366,32.4596859 C148.030366,33.573822 148.122513,34.3612565 148.306806,34.8219895 C148.487123,35.2778501 148.807121,35.6649276 149.220942,35.9277487 C149.682181,36.2141206 150.217534,36.3583381 150.760209,36.3424084 C151.341925,36.3579616 151.914711,36.1969681 152.403141,35.8806283 C152.835055,35.6001063 153.165422,35.1882483 153.34555,34.7057592 C153.521466,34.2303665 153.609424,33.3225131 153.609424,31.982199 L153.609424,19.5298429 L157.228272,19.5298429 L157.228272,31.4670157 C157.228272,33.4795812 157.12356,34.8753927 156.914136,35.6544503 C156.670637,36.4860877 156.250614,37.2554158 155.682723,37.9099476 C155.120169,38.6025276 154.403804,39.1543226 153.590576,39.521466 C152.718884,39.8865433 151.780462,40.0652393 150.835602,40.0460733 C149.567224,40.0759132 148.318579,39.728217 147.248168,39.0471204 C146.286999,38.4448242 145.526954,37.569952 145.064921,36.5340314 C144.627225,35.5329843 144.408377,33.8408377 144.408377,31.4575916 L144.411518,19.5298429 Z" id="Shape" fill="#8CC63F"></path>
                <polygon id="Shape" fill="#8CC63F" points="161.437696 19.5298429 164.893194 19.5298429 173.001047 32.6890052 173.001047 19.5298429 176.60733 19.5298429 176.60733 39.5277487 173.151832 39.5277487 165.053403 26.4094241 165.053403 39.5277487 161.437696 39.5277487"></polygon>
                <path d="M198.430366,22.7905759 L195.889005,25.4450262 C194.282723,23.6502618 192.409424,22.7528796 190.26911,22.7528796 C188.500173,22.7121695 186.796918,23.423381 185.582199,24.7099476 C184.338973,25.9779842 183.659483,27.693697 183.697382,29.4691099 C183.658806,31.3012392 184.364991,33.0706686 185.65445,34.3727749 C186.910919,35.694237 188.665967,36.425222 190.489005,36.3863874 C191.594479,36.4211869 192.686124,36.1329925 193.630366,35.5570681 C194.56039,34.9129958 195.280342,34.0095057 195.700524,32.9591623 L190.225131,32.9591623 L190.225131,29.3842932 L199.756021,29.3842932 L199.781152,30.226178 C199.783347,31.9675309 199.339969,33.6804875 198.493194,35.2020942 C197.722576,36.6751536 196.570381,37.9141427 195.157068,38.7895288 C193.705291,39.6372458 192.047254,40.0667048 190.366492,40.0303665 C188.522543,40.0619779 186.70439,39.5941425 185.104712,38.6764398 C183.549018,37.759322 182.282088,36.4238213 181.448168,34.8219895 C180.552853,33.1647584 180.089382,31.3087123 180.100524,29.4251309 C180.057689,26.895428 180.941465,24.43739 182.58534,22.5141361 C184.551832,20.1853403 187.110995,19.0209424 190.262827,19.0209424 C191.85534,19.0088302 193.432005,19.3376591 194.886911,19.9853403 C196.254955,20.6564578 197.463249,21.6130242 198.430366,22.7905759 L198.430366,22.7905759 Z" id="Shape" fill="#8CC63F"></path>
                <polygon id="Shape" fill="#8CC63F" points="210.471204 19.5298429 214.127749 19.5298429 214.127749 27.0691099 220.451309 27.0691099 220.451309 19.5298429 224.095288 19.5298429 224.095288 39.5277487 220.451309 39.5277487 220.451309 30.7570681 214.118325 30.7570681 214.118325 39.5246073 210.471204 39.5246073"></polygon>
                <path d="M234.194764,19.5298429 L237.851309,19.5298429 L245.139267,39.5277487 L241.391623,39.5277487 L239.908901,35.4094241 L232.17801,35.4094241 L230.635602,39.5277487 L226.887958,39.5277487 L234.194764,19.5298429 Z M236.045026,24.8167539 L233.503665,31.6806283 L238.573822,31.6806283 L236.045026,24.8167539 Z" id="Shape" fill="#8CC63F"></path>
                <path d="M252.640838,19.5298429 L256.259686,19.5298429 L256.259686,32.7958115 C256.259686,34.9068063 256.100524,36.3884817 255.782199,37.2408377 C255.485245,38.0665553 254.935664,38.7777131 254.211518,39.2732984 C253.435024,39.7898571 252.517596,40.0532335 251.58534,40.0272251 C249.491099,40.0272251 247.710995,39.0617801 246.245026,37.1308901 L248.846073,34.5612565 C249.257248,35.0990576 249.752641,35.5668694 250.313089,35.9465969 C250.664865,36.1676381 251.069514,36.2902261 251.484817,36.3015707 C251.849234,36.315461 252.187702,36.1136108 252.348691,35.7863874 C252.537173,35.4429319 252.631414,34.6858639 252.631414,33.5151832 L252.640838,19.5298429 Z" id="Shape" fill="#8CC63F"></path>
                <polygon id="Shape" fill="#8CC63F" points="260.33089 19.5298429 263.912042 19.5298429 263.912042 39.5277487 260.33089 39.5277487"></polygon>
            </g>
        </g>
    </g>
</svg>